<?xml version="1.0" standalone="no"?>
<!DOCTYPE svg PUBLIC "-//W3C//DTD SVG 20010904//EN"
 "http://www.w3.org/TR/2001/REC-SVG-20010904/DTD/svg10.dtd">
<svg version="1.0" xmlns="http://www.w3.org/2000/svg"
 width="164.000000pt" height="50.000000pt" viewBox="0 0 164.000000 50.000000"
 preserveAspectRatio="xMidYMid meet">

<g transform="translate(0.000000,50.000000) scale(0.100000,-0.100000)"
fill="#000000" stroke="none">
<path d="M110 270 c0 -19 7 -20 139 -20 113 0 140 3 144 15 4 8 1 18 -5 21 -7
4 -14 2 -16 -4 -5 -15 -242 -17 -242 -2 0 6 -4 10 -10 10 -5 0 -10 -9 -10 -20z"/>
<path d="M190 141 c0 -61 7 -71 50 -71 63 0 70 6 70 61 l0 49 -60 0 -60 0 0
-39z m80 -14 c0 -13 -3 -26 -6 -30 -12 -12 -34 6 -34 29 0 17 6 24 20 24 14 0
20 -7 20 -23z"/>
</g>
</svg>
